<svg id="Capa_1" enable-background="new 0 0 512 512" height="512" viewBox="0 0 512 512" width="512" xmlns="http://www.w3.org/2000/svg"><g><g><path d="m423.178 266.118h-334.356s-22.15 63.946-22.15 87.691 60.944 71.234 189.328 71.234 189.328-47.489 189.328-71.234-22.15-87.691-22.15-87.691z" fill="#e3a67b"/></g><g><path d="m255.904 28.5c-13.077 0-25.783 1.581-37.95 4.54-4.283-14.89-15.68-25.54-29.072-25.54-17.058 0-30.887 17.278-30.887 38.592 0 1.566.083 3.106.228 4.623-14.203-9.374-31.475-9.532-41.663.656-12.062 12.062-9.623 34.058 5.448 49.129.053.053.108.101.161.153-16.598 25.217-26.266 55.401-26.266 87.848v50.245h320v-50.246c.001-88.365-71.633-160-159.999-160z" fill="#f2b88f"/></g><g><path d="m178.365 182.103c-26.525-103.484 39.59-149.063 39.59-149.063-4.283-14.89-15.68-25.54-29.072-25.54-17.058 0-30.887 17.278-30.887 38.592 0 1.566.083 3.106.228 4.623-14.203-9.374-31.475-9.532-41.663.656-12.062 12.062-9.623 34.058 5.448 49.129.053.053.108.101.161.153-16.598 25.217-26.266 55.401-26.266 87.848v50.245h82.461z" fill="#e3a67b"/></g><g><path d="m396.447 111.97h40.664v139.161h-40.664z" fill="#cde2ff"/></g><g><path d="m396.447 111.97 14.897-46.746c1.46-4.58 7.91-4.663 9.487-.122l16.279 46.869c-10.436 13-30.226 13-40.663-.001z" fill="#ffeee5"/></g><g><circle cx="401.032" cy="251.131" fill="#ffdecf" r="36.081"/></g><g><circle cx="110.774" cy="251.131" fill="#ffcdbe" r="36.081"/></g><g><path d="m396.446 215.341c-64.284-15.747-90.338-62.213-90.338-62.213l9.718 49.367c1.299 6.599-4.159 12.559-10.851 11.881-92.749-9.386-128.625-70.44-128.625-70.44-17.363 55.526-60.782 71.324-60.99 71.4-2.935 11.558-4.487 23.668-4.457 36.147.191 79.877 67.133 145.714 147.004 144.632 79.158-1.072 142.996-65.574 142.996-144.986-.002-12.352-1.551-24.341-4.457-35.788z" fill="#ffeee5"/></g><g><path d="m160.901 251.128c0-33.437 11.324-64.225 30.338-88.754-10.252-10.546-14.89-18.439-14.89-18.439-17.363 55.526-60.782 71.324-60.99 71.4-2.935 11.558-4.487 23.668-4.457 36.147.191 79.877 67.133 145.714 147.004 144.632 7.829-.106 15.505-.842 22.987-2.142-68.163-11.85-119.992-71.291-119.992-142.844z" fill="#ffdecf"/></g><g><path d="m407.111 444.5h-38.864v60h38.864c16.569 0 30-13.431 30-30s-13.431-30-30-30z" fill="#ffdecf"/></g><g><path d="m143.558 444.5h-29.979c-16.568 0-30 13.431-30 30s13.432 30 30 30h29.979z" fill="#ffdecf"/></g><g><path d="m368.247 504.5h-224.689c-10.086 0-18.594-7.511-19.846-17.519l-15-120c-1.492-11.937 7.816-22.481 19.846-22.481h254.689c12.03 0 21.338 10.544 19.846 22.481l-15 120c-1.252 10.008-9.76 17.519-19.846 17.519z" fill="#f2f6fc"/></g><g><path d="m183.713 486.981-15-120c-1.492-11.937 7.816-22.481 19.846-22.481h-60c-12.03 0-21.338 10.544-19.846 22.481l15 120c1.251 10.009 9.759 17.519 19.846 17.519h60c-10.087 0-18.595-7.511-19.846-17.519z" fill="#e9edf5"/></g><g><circle cx="255.903" cy="424.5" fill="#cde2ff" r="30"/></g><g><path d="m255.903 424.5c0-11.102 6.036-20.789 15-25.977-4.414-2.554-9.534-4.023-15-4.023-16.569 0-30 13.431-30 30s13.431 30 30 30c5.466 0 10.586-1.469 15-4.023-8.965-5.188-15-14.875-15-25.977z" fill="#b2d3ff"/></g><g><g><g><ellipse cx="176.349" cy="280.122" fill="#ffa1ac" rx="29.355" ry="23.377"/></g><g><ellipse cx="335.462" cy="280.122" fill="#ffa1ac" rx="29.355" ry="23.377"/></g></g><g><path d="m193.457 265.119c-4.143 0-7.5-3.358-7.5-7.5v-12c0-4.142 3.357-7.5 7.5-7.5s7.5 3.358 7.5 7.5v12c0 4.142-3.357 7.5-7.5 7.5z"/></g><g><path d="m318.354 265.119c-4.143 0-7.5-3.358-7.5-7.5v-12c0-4.142 3.357-7.5 7.5-7.5s7.5 3.358 7.5 7.5v12c0 4.142-3.357 7.5-7.5 7.5z"/></g><g><path d="m255.906 272.262c-8.479 0-16.54-3.671-22.119-10.073-2.722-3.123-2.396-7.86.727-10.582 3.122-2.721 7.859-2.396 10.582.727 2.729 3.132 6.67 4.928 10.811 4.928s8.08-1.796 10.81-4.928c2.72-3.122 7.458-3.448 10.582-.727 3.122 2.722 3.448 7.459.727 10.582-5.581 6.402-13.642 10.073-22.12 10.073z"/></g></g><g><path d="m407.111 437h-5.212l4.239-33.91c28.889-14.583 46.69-33.292 46.69-49.281 0-17.402-10.636-53.444-17.73-75.546 5.946-7.451 9.513-16.88 9.513-27.132v-72.291c0-4.142-3.357-7.5-7.5-7.5s-7.5 3.358-7.5 7.5v39.432c-6.97-6.071-15.878-9.964-25.664-10.614v-80.978c4.013 1.657 8.359 2.541 12.83 2.541h.135c4.426-.018 8.727-.896 12.699-2.537v22.156c0 4.142 3.357 7.5 7.5 7.5s7.5-3.358 7.5-7.5v-36.87c0-.838-.141-1.669-.415-2.461l-16.279-46.869c-1.751-5.041-6.481-8.398-11.807-8.398-.054 0-.109 0-.164.001-5.391.07-10.111 3.568-11.747 8.704l-9.924 31.141c-31.038-45.454-82.668-73.088-138.371-73.088-11.147 0-22.275 1.108-33.168 3.297-6.587-14.777-19.535-24.297-33.853-24.297-19.096 0-34.979 16.829-37.904 38.783-14.608-5.112-29.812-2.623-39.721 7.284-13.8 13.801-12.798 37.658 1.53 55.381-15.97 26.198-24.384 56.17-24.384 87.052v25.246c-12.696 7.625-21.213 21.527-21.213 37.385 0 10.333 3.622 19.832 9.653 27.31-7.088 22.098-17.673 58.008-17.673 75.368 0 15.949 17.719 34.609 46.483 49.175l4.275 34.197c-18.971 1.841-33.85 17.874-33.85 37.32 0 20.678 16.822 37.5 37.5 37.5h293.532c20.678 0 37.5-16.822 37.5-37.5s-16.822-37.501-37.5-37.501zm-263.552 60c-6.291 0-11.623-4.708-12.403-10.95l-15-120c-.451-3.608.626-7.097 3.032-9.823s5.734-4.228 9.371-4.228h112.343c4.143 0 7.5-3.358 7.5-7.5s-3.357-7.5-7.5-7.5h-91.834c-19.718-24.374-30.592-54.643-30.666-85.535-.024-10.364 1.109-20.68 3.372-30.718 10.554-4.92 39.889-21.615 56.807-61.192 5.097 6.076 12.539 13.882 22.618 21.938 19.549 15.627 53.291 35.311 103.021 40.343 5.584.564 10.959-1.49 14.736-5.639 3.769-4.139 5.31-9.662 4.228-15.153l-3.897-19.8c14.5 14.241 37.533 31.119 70.904 40.222 2.132 9.703 3.211 19.661 3.211 29.661 0 31.206-10.672 61.584-30.107 85.872h-92.393c-4.143 0-7.5 3.358-7.5 7.5s3.357 7.5 7.5 7.5h112.346c3.637 0 6.965 1.501 9.371 4.228s3.483 6.214 3.032 9.823l-15 120c-.78 6.242-6.112 10.95-12.403 10.95h-224.689zm264.869-112.235 2.107-16.854c.978-7.823-1.454-15.7-6.672-21.61s-12.731-9.3-20.616-9.3h-1.325c8.863-13.012 15.634-27.303 20.109-42.313 7.525-.171 14.582-2.255 20.707-5.79 9.636 30.734 15.091 54.115 15.091 64.912-.001 5.99-8.073 18.365-29.401 30.955zm21.183-133.634c0 14.149-10.336 25.922-23.853 28.183 1.742-9.246 2.643-18.68 2.643-28.185 0-9.473-.877-18.912-2.607-28.174 13.499 2.275 23.817 14.04 23.817 28.176zm-12.757-136.91h-.075c-4.371 0-8.525-1.521-11.822-4.251l6.315-19.814c3.375.898 6.935.89 10.317-.02l6.917 19.913c-3.263 2.663-7.349 4.155-11.652 4.172zm-313.45 74.279c0-29.894 8.655-58.846 25.03-83.725 1.964-2.983 1.551-6.938-.986-9.452l-.17-.163c-12.092-12.121-14.522-29.377-5.413-38.487 7.436-7.437 20.688-7.315 32.229.301 2.412 1.592 5.522 1.657 7.997.167 2.476-1.489 3.875-4.268 3.6-7.143-.131-1.362-.194-2.64-.194-3.907 0-17.144 10.491-31.091 23.387-31.091 9.617 0 18.404 8.083 21.864 20.113 1.112 3.865 5.074 6.165 8.98 5.214 11.804-2.871 23.976-4.327 36.176-4.327 55.214 0 106.025 29.828 133.043 77.943v91.528c-53.418-16.639-76.072-55.613-76.298-56.011-1.803-3.215-5.674-4.643-9.133-3.37s-5.479 4.871-4.768 8.487l9.718 49.367c.21 1.07-.287 1.81-.602 2.156-.321.352-1.017.925-2.136.814-45.741-4.629-76.691-22.505-94.601-36.687-19.471-15.417-28.236-29.961-28.313-30.09-1.502-2.558-4.378-3.989-7.319-3.651-2.948.338-5.419 2.381-6.305 5.213-14.472 46.281-47.572 62.826-54.956 66.005-1.152-.091-2.309-.153-3.463-.153-2.512 0-4.971.226-7.368.636v-19.687zm2.604 34.455c-1.753 9.382-2.629 18.946-2.606 28.546.023 9.368.947 18.682 2.71 27.825-13.55-2.233-23.92-14.023-23.92-28.195-.001-14.136 10.317-25.901 23.816-28.176zm-31.836 130.854c0-10.786 5.444-34.129 15.061-64.815 6.126 3.499 13.176 5.552 20.688 5.697 4.556 14.97 11.438 29.26 20.437 42.31h-1.799c-7.885 0-15.398 3.39-20.616 9.3s-7.649 13.787-6.672 21.61l2.091 16.731c-21.173-12.549-29.19-24.863-29.19-30.833zm16.907 120.691c0-11.804 9.139-21.508 20.712-22.422l4.479 35.833c.406 3.251 1.38 6.309 2.804 9.089h-5.495c-12.406 0-22.5-10.093-22.5-22.5zm316.032 22.5h-14.38c1.424-2.78 2.397-5.838 2.804-9.089l4.489-35.911h7.087c12.406 0 22.5 10.093 22.5 22.5s-10.093 22.5-22.5 22.5z"/><path d="m255.902 387c-20.678 0-37.5 16.822-37.5 37.5s16.822 37.5 37.5 37.5 37.5-16.822 37.5-37.5-16.822-37.5-37.5-37.5zm0 60c-12.406 0-22.5-10.093-22.5-22.5s10.094-22.5 22.5-22.5 22.5 10.093 22.5 22.5-10.093 22.5-22.5 22.5z"/></g></g></svg>