<svg id="Capa_1" enable-background="new 0 0 511.994 511.994" height="512" viewBox="0 0 511.994 511.994" width="512" xmlns="http://www.w3.org/2000/svg"><g><path d="m362.82 374.44c-5.176 0-10.105 1.592-14.24 4.532l-19.268-41.7c4.375-3.989 8.673-8.086 12.882-12.296 67.318-67.319 104.777-153.613 100.202-230.835-.617-10.416-8.938-18.737-19.354-19.356-41.346-2.46-86.338 7.308-130.119 28.234-3.737 1.786-5.318 6.264-3.532 10.001s6.267 5.321 10.001 3.532c11.056-5.284 22.18-9.811 33.285-13.576 4.23 20.014 14.053 38.123 28.725 52.795 14.675 14.675 32.795 24.479 52.813 28.705-2.399 7.097-5.11 14.195-8.128 21.267-16.624 38.95-42.386 76.512-74.499 108.626-25.636 25.636-54.575 47.097-85.017 63.194l-36.081-36.081c9.012-9.65 8.839-24.819-.568-34.226-4.655-4.655-10.844-7.219-17.427-7.219-6.3 0-12.235 2.354-16.814 6.635l-36.073-36.073c16.096-30.438 37.558-59.377 63.196-85.015 19.885-19.885 41.71-37.26 64.869-51.645 3.519-2.186 4.6-6.81 2.414-10.328-2.185-3.519-6.809-4.599-10.328-2.414-24.134 14.99-46.865 33.084-67.562 53.78-4.21 4.21-8.307 8.509-12.297 12.884l-41.716-19.276c6.816-9.616 5.945-23.049-2.664-31.657-9.609-9.609-25.244-9.609-34.854 0l-62.232 62.232c-9.608 9.609-9.608 25.245 0 34.854v.001c4.805 4.804 11.116 7.206 17.427 7.206 6.312 0 12.623-2.402 17.427-7.207l4.26-4.26 43.76 43.76c-3.784 7.765-7.24 15.611-10.339 23.514-3.245 8.278-1.249 17.719 5.085 24.054l22.594 22.594-25.812 25.812c-4.655 4.655-7.219 10.844-7.219 17.427s2.563 12.772 7.219 17.427c4.805 4.804 11.116 7.206 17.427 7.206 6.312 0 12.623-2.402 17.427-7.207l25.812-25.812 22.586 22.586c4.318 4.318 10.08 6.621 15.934 6.621 2.733 0 5.485-.502 8.121-1.535 7.904-3.099 15.75-6.555 23.515-10.338l43.767 43.767-4.259 4.26c-4.655 4.655-7.22 10.844-7.22 17.427s2.564 12.772 7.219 17.427 10.844 7.219 17.427 7.219 12.771-2.563 17.428-7.219l15.839-15.839c2.929-2.929 2.929-7.678 0-10.606-2.93-2.929-7.678-2.929-10.607 0l-15.838 15.838c-1.822 1.822-4.245 2.826-6.821 2.826s-4.998-1.003-6.82-2.826c-1.821-1.821-2.825-4.244-2.825-6.82s1.004-4.998 2.826-6.82l62.226-62.232c1.821-1.822 4.243-2.825 6.819-2.825 2.577 0 4.999 1.003 6.821 2.826 1.821 1.822 2.825 4.244 2.825 6.82s-1.004 4.999-2.826 6.82l-20.211 20.211c-2.929 2.929-2.929 7.678 0 10.606 2.93 2.929 7.678 2.929 10.607 0l20.21-20.211c4.655-4.655 7.22-10.844 7.22-17.427s-2.564-12.772-7.219-17.427c-4.654-4.654-10.842-7.218-17.426-7.218zm9.187-229.274c-12.921-12.921-21.447-28.947-24.917-46.65 25.687-7.18 51.069-10.182 75.062-8.757 2.837.168 5.102 2.434 5.27 5.27 1.415 23.867-1.598 49.327-8.771 75.053-17.701-3.471-33.725-11.998-46.644-24.916zm-322.968 78.243c-3.76-3.761-3.76-9.88 0-13.641l62.232-62.232c1.88-1.88 4.351-2.82 6.82-2.82 2.47 0 4.94.94 6.821 2.82 3.761 3.761 3.761 9.88 0 13.641l-62.232 62.232c-3.761 3.761-9.88 3.761-13.641 0zm78.206-43.352 42.351 19.569c-15.855 18.875-29.66 39.022-41.065 59.901l-40.379-40.379zm-.586 130.42c-2.118-2.118-2.795-5.247-1.727-7.972 2.333-5.95 4.882-11.866 7.626-17.739l32.5 32.5-15.805 15.805zm10.423 83.259c-3.761 3.761-9.881 3.76-13.641 0-3.761-3.761-3.761-9.88 0-13.641l62.232-62.232c3.761-3.76 9.88-3.761 13.641 0s3.761 9.88 0 13.641zm77.583-1.498c-2.725 1.068-5.855.39-7.973-1.727l-22.586-22.586 15.805-15.805 32.492 32.492c-5.872 2.743-11.788 5.293-17.738 7.626zm42.978-3.599c20.881-11.405 41.03-25.21 59.905-41.064l19.572 42.358-39.091 39.091z"/><path d="m284.486 254.486c-3.878-1.454-8.202.506-9.659 4.384-1.456 3.877.507 8.202 4.384 9.658 5.978 2.245 12.201 3.335 18.379 3.335 13.664 0 27.095-5.336 37.072-15.313 20.41-20.412 20.41-53.623 0-74.034-9.888-9.888-23.034-15.333-37.018-15.333-13.982 0-27.129 5.445-37.016 15.333-14.411 14.41-19.147 36.082-12.068 55.212 1.437 3.884 5.749 5.868 9.637 4.431 3.885-1.438 5.868-5.752 4.431-9.637-5.053-13.653-1.674-29.119 8.607-39.399 7.054-7.055 16.434-10.939 26.409-10.939 9.977 0 19.356 3.885 26.41 10.939 14.563 14.563 14.563 38.258.001 52.82-10.338 10.336-25.873 13.688-39.569 8.543z"/><path d="m235.199 101.987c20.737 0 37.608-16.871 37.608-37.608s-16.87-37.609-37.608-37.609-37.608 16.871-37.608 37.608 16.871 37.609 37.608 37.609zm0-60.217c12.466 0 22.608 10.142 22.608 22.608s-10.142 22.608-22.608 22.608-22.608-10.142-22.608-22.608 10.142-22.608 22.608-22.608z"/><path d="m144.775 96.006c16.043 0 29.095-13.052 29.095-29.095s-13.052-29.095-29.095-29.095-29.095 13.052-29.095 29.095 13.052 29.095 29.095 29.095zm0-43.191c7.772 0 14.095 6.323 14.095 14.095s-6.323 14.095-14.095 14.095-14.095-6.323-14.095-14.095 6.323-14.095 14.095-14.095z"/><path d="m199.996 442.186c-2.929-2.929-7.678-2.929-10.606 0l-6.608 6.608-6.608-6.608c-2.928-2.929-7.677-2.929-10.606 0s-2.929 7.678 0 10.606l6.608 6.608-6.608 6.608c-2.929 2.929-2.929 7.678 0 10.606 1.464 1.464 3.384 2.197 5.303 2.197s3.839-.732 5.303-2.197l6.608-6.608 6.608 6.608c1.464 1.465 3.384 2.197 5.303 2.197s3.839-.732 5.303-2.197c2.929-2.929 2.929-7.678 0-10.606l-6.608-6.608 6.608-6.608c2.93-2.928 2.93-7.677 0-10.606z"/><path d="m71.088 33.739c1.464 1.464 3.384 2.197 5.303 2.197s3.839-.732 5.303-2.197l5.165-5.165 5.165 5.165c1.464 1.464 3.384 2.197 5.303 2.197s3.839-.732 5.303-2.197c2.929-2.929 2.929-7.678 0-10.606l-5.165-5.165 5.165-5.165c2.929-2.929 2.929-7.678 0-10.606-2.929-2.929-7.678-2.929-10.606 0l-5.165 5.165-5.165-5.165c-2.929-2.929-7.678-2.929-10.606 0-2.929 2.929-2.929 7.678 0 10.606l5.165 5.165-5.165 5.165c-2.929 2.928-2.929 7.677 0 10.606z"/><path d="m96.682 447.732c-17.717 0-32.131 14.414-32.131 32.131s14.414 32.131 32.131 32.131 32.131-14.414 32.131-32.131-14.413-32.131-32.131-32.131zm0 49.262c-9.446 0-17.131-7.685-17.131-17.131s7.685-17.131 17.131-17.131 17.131 7.685 17.131 17.131-7.684 17.131-17.131 17.131z"/><path d="m448.638 303.989c-17.718 0-32.132 14.414-32.132 32.131s14.414 32.131 32.132 32.131c17.717 0 32.131-14.414 32.131-32.131s-14.414-32.131-32.131-32.131zm0 49.263c-9.446 0-17.132-7.685-17.132-17.131s7.686-17.131 17.132-17.131 17.131 7.685 17.131 17.131-7.685 17.131-17.131 17.131z"/></g></svg>